<svg version="1.1" xmlns="http://www.w3.org/2000/svg" style="display: block;" viewBox="0 0 2048 1117" width="1408" height="768" preserveAspectRatio="none">
<path transform="translate(0,0)" fill="rgb(255,255,255)" d="M 0 0 L 2048 0 L 2048 1117 L 0 1117 L 0 0 z"/>
<path transform="translate(0,0)" fill="rgb(33,45,59)" d="M 1023.57 5.87508 C 1032.43 9.68316 1064.19 29.7152 1074.41 35.7675 L 1195.03 107.792 L 1194.98 249.34 L 1309.54 179.493 C 1330.56 191.52 1353.47 206.417 1374.2 219.267 C 1408.59 240.455 1442.86 261.837 1477.01 283.411 L 1477 486.23 C 1464.54 494.487 1448.28 503.797 1435.27 511.686 L 1357.61 558.847 C 1395.74 580.712 1441.65 608.867 1478.65 632.367 L 1478.77 842.298 C 1425.83 875.299 1366.94 911.159 1313.08 942.422 C 1274.77 920.366 1233.13 893.705 1194.96 870.414 L 1194.98 1011.46 L 1024.41 1113.49 C 1018.48 1111.65 993.495 1095.43 986.6 1091.35 L 853.12 1011.35 L 853.158 870.704 C 814.915 892.235 772.367 922.509 734.482 942.25 C 680.501 911.132 622.338 874.867 569.334 842.128 C 568.697 819.362 569.252 793.877 569.253 770.941 L 569.317 632.527 C 582.328 623.819 599.157 614.184 612.715 605.937 C 638.54 590.125 664.456 574.464 690.463 558.955 C 651.193 534.157 610.312 510.859 570.913 486.215 L 570.963 283.563 C 585.373 273.17 610.124 258.895 625.998 249.03 L 738.067 179.527 C 775.331 200.79 816.327 226.587 852.887 249.163 L 852.857 107.844 C 906.489 73.8799 968.573 38.5337 1023.57 5.87508 z"/>
<path transform="translate(0,0)" fill="rgb(255,255,255)" d="M 1023.56 379.889 C 1028.96 380.957 1160.68 461.109 1174.8 470.004 L 1174.82 647.923 C 1125.16 678.507 1074 707.756 1024.59 738.632 C 1023.11 738.622 885.154 655.152 873.276 648.073 L 873.195 469.767 L 1023.56 379.889 z"/>
<path transform="translate(0,0)" fill="rgb(255,255,255)" d="M 1024.01 50.1109 C 1039.97 58.8242 1058.58 70.6131 1074.48 80.0937 C 1102.05 96.4257 1129.52 112.937 1156.88 129.626 L 1156.9 279.252 C 1112.43 254.134 1068.11 228.74 1023.96 203.073 C 980.57 228.853 935.021 254.245 891.101 279.33 C 890.463 229.786 891.028 178.905 891.022 129.259 C 934.631 104.691 980.385 75.7775 1024.01 50.1109 z"/>
<path transform="translate(0,0)" fill="rgb(255,255,255)" d="M 1023.98 939.623 C 1068.18 913.853 1112.87 886.366 1156.81 859.962 L 1156.92 989.585 C 1113.12 1016.66 1068.13 1042.54 1024.12 1069.47 L 891.184 989.641 L 891.269 860.512 C 899.755 864.294 926.464 881.134 935.718 886.692 L 1023.98 939.623 z"/>
<path transform="translate(0,0)" fill="rgb(255,255,255)" d="M 738.041 224.056 C 745.495 227.469 768.827 242.451 776.986 247.435 L 859.045 297.367 L 687.605 396.443 C 661.606 411.763 635.248 426.478 609.28 441.937 L 609.254 304.567 C 621.087 296.153 640.243 284.987 652.924 277.058 L 738.041 224.056 z"/>
<path transform="translate(0,0)" fill="rgb(255,255,255)" d="M 1309.67 223.873 L 1438.6 304.405 C 1437.53 348.599 1438.42 397.447 1438.47 441.816 C 1414.88 427.226 1388.33 412.499 1364.17 398.488 C 1306.22 364.266 1246.83 331.612 1189 297.4 L 1309.67 223.873 z"/>
<path transform="translate(0,0)" fill="rgb(255,255,255)" d="M 1439.68 678.945 C 1441.8 681.927 1440.86 806.744 1440.85 820.835 C 1427.19 828.438 1410.94 838.889 1397.43 847.101 L 1313.37 898.284 C 1291.86 884.882 1270.26 871.622 1248.57 858.507 C 1233.71 849.167 1218.72 840.019 1203.62 831.066 C 1282.9 781.293 1361.6 730.582 1439.68 678.945 z"/>
<path transform="translate(0,0)" fill="rgb(255,255,255)" d="M 607.427 678.337 C 614.177 682.168 627.089 691.309 634.067 695.953 L 689.552 732.97 C 740.315 766.533 791.438 799.548 842.912 832.009 C 829.329 840.744 814.569 849.49 800.752 857.987 L 734.59 898.265 C 722.98 890.45 707.984 881.964 695.93 874.512 C 666.519 856.329 636.461 838.838 607.152 820.489 C 607.757 773.48 607.288 725.439 607.427 678.337 z"/>
<path transform="translate(0,0)" fill="rgb(255,255,255)" d="M 726.874 580.8 C 753.208 595.808 779.018 612.67 805.187 628.05 C 815.782 634.278 827.761 641.306 837.581 648.454 C 825.527 656.767 809.951 665.721 797.301 673.424 L 728.478 715.292 L 726.994 715.949 C 719.18 714.58 633.913 654.82 620.274 645.717 C 655.743 624.746 691.688 602.355 726.874 580.8 z"/>
<path transform="translate(0,0)" fill="rgb(255,255,255)" d="M 1320.67 580.806 C 1330.11 585.44 1347.03 596.453 1356.59 602.302 C 1380.39 617.005 1404.28 631.544 1428.28 645.916 L 1362.43 689.922 C 1350.88 697.599 1333.34 709.857 1321.51 716.234 C 1286.16 694.457 1244.94 670.865 1210.77 648.362 C 1217.38 642.896 1239.01 630.407 1247.54 625.231 L 1320.67 580.806 z"/>
<path transform="translate(0,0)" fill="rgb(255,255,255)" d="M 1312.19 406.999 C 1320.96 410.97 1340.62 423.091 1349.79 428.407 L 1426.12 472.621 L 1323.92 535.19 C 1321.87 535.836 1320.83 536.519 1318.8 535.175 C 1305.2 526.18 1214.86 475.129 1212.46 469.229 C 1214.44 465.124 1302.3 412.971 1312.19 406.999 z"/>
<path transform="translate(0,0)" fill="rgb(255,255,255)" d="M 735.177 407.084 C 741.309 409.796 769.359 427.164 775.838 431.306 C 793.728 442.741 818.646 455.979 835.332 468.078 C 835.729 474.821 745.972 523.553 734.672 532.355 C 733.019 533.642 728.455 536.127 726.432 536.544 C 692.352 514.961 656.511 493.634 622.009 472.523 C 659.414 451.6 697.98 428.597 735.177 407.084 z"/>
<path transform="translate(0,0)" fill="rgb(255,255,255)" d="M 1191.58 681.86 C 1194.01 682.027 1277.74 733.809 1287 739.474 C 1272.6 749.378 1254.74 760.028 1239.69 769.529 C 1219.91 781.688 1200.27 794.071 1180.77 806.677 L 1180.56 688.773 L 1191.58 681.86 z"/>
<path transform="translate(0,0)" fill="rgb(255,255,255)" d="M 855.783 681.766 L 866.935 688.67 L 866.653 807.368 C 847.5 795.887 827.857 782.914 808.972 770.85 C 792.878 760.437 776.723 750.118 760.508 739.894 L 855.783 681.766 z"/>
<path transform="translate(0,0)" fill="rgb(255,255,255)" d="M 1175.48 327.883 C 1208.12 345.579 1242.84 366.48 1275.13 385.335 L 1244.48 404.098 L 1191.98 435.474 L 1175.72 425.804 C 1175.86 393.163 1175.78 360.522 1175.48 327.883 z"/>
<path transform="translate(0,0)" fill="rgb(255,255,255)" d="M 871.138 328.094 C 872.916 330.564 872.181 415.37 872.176 425.89 L 856.181 435.69 L 804.859 404.724 C 794.426 398.467 782.889 391.853 772.872 385.102 C 805.779 366.362 838.535 347.359 871.138 328.094 z"/>
<path transform="translate(0,0)" fill="rgb(255,255,255)" d="M 1003.31 777.906 L 1004.69 778.546 C 1006.04 812.714 1004.89 854.652 1004.9 889.426 C 986.805 878.044 966.842 866.541 948.441 855.513 C 936.52 848.699 923.764 840.557 911.964 833.349 C 941.908 814.693 973.091 796.396 1003.31 777.906 z"/>
<path transform="translate(0,0)" fill="rgb(255,255,255)" d="M 1043.33 777.409 C 1047.76 779.279 1067.73 791.887 1072.9 795.039 L 1135.94 833.561 L 1100.36 855.139 L 1043.29 889.383 L 1043.33 777.409 z"/>
<path transform="translate(0,0)" fill="rgb(255,255,255)" d="M 1003.39 252.978 L 1004.71 253.548 C 1005.99 282.299 1004.84 319.652 1004.79 349.058 C 988.263 339.766 971.242 329.078 954.965 319.2 C 943.856 312.675 932.693 306.242 921.477 299.902 L 1003.39 252.978 z"/>
<path transform="translate(0,0)" fill="rgb(255,255,255)" d="M 1043.12 252.274 C 1047.72 254.191 1064.4 264.286 1069.4 267.162 L 1126.58 299.841 C 1115.89 305.907 1105.02 312.471 1094.41 318.717 C 1078.01 328.53 1059.84 339.918 1043.16 348.882 L 1043.12 252.274 z"/>
<path transform="translate(0,0)" fill="rgb(255,255,255)" d="M 834.7 515.824 C 836.5 521.633 835.236 590.279 835.238 601.816 C 820.478 593.299 805.207 583.73 790.555 574.883 L 763.62 558.808 C 785.066 544.743 812.22 529.624 834.7 515.824 z"/>
<path transform="translate(0,0)" fill="rgb(255,255,255)" d="M 1212.85 515.978 C 1217.83 518.188 1232.44 527.434 1237.54 530.531 L 1284.6 558.929 C 1275.84 563.699 1266.2 569.85 1257.58 575.069 C 1243.03 583.336 1227.27 593.346 1212.82 602.074 L 1212.85 515.978 z"/>
<path transform="translate(0,0)" fill="rgb(255,255,255)" d="M 905.028 711.321 C 909.026 713.088 922.904 721.869 927.34 724.564 L 973.109 752.4 L 948.485 767.109 C 933.868 775.787 919.349 784.63 904.932 793.637 C 905.263 766.386 905.012 738.612 905.028 711.321 z"/>
<path transform="translate(0,0)" fill="rgb(255,255,255)" d="M 1141.33 711.958 L 1142.02 712.247 C 1143.55 715.842 1142.81 784.938 1142.82 793.408 L 1104.46 769.915 C 1094.95 763.94 1084.52 758.047 1074.79 752.326 L 1141.33 711.958 z"/>
<path transform="translate(0,0)" fill="rgb(255,255,255)" d="M 910.457 337.262 C 927.897 346.448 949.125 359.957 966.358 370.262 L 944.937 382.864 C 933.453 389.612 922.003 396.42 910.589 403.288 L 910.457 337.262 z"/>
<path transform="translate(0,0)" fill="rgb(255,255,255)" d="M 1136.05 337.864 L 1136.78 338.503 C 1137.9 341.466 1137.6 397.138 1137.67 402.961 L 1105.44 384.091 C 1097.49 379.284 1089.46 374.618 1081.36 370.096 C 1098.94 360.488 1118.6 348.192 1136.05 337.864 z"/>
</svg>