<svg version="1.1" xmlns="http://www.w3.org/2000/svg" style="display: block;" viewBox="0 0 2048 1117" width="1408" height="768" preserveAspectRatio="none">
<path transform="translate(0,0)" fill="rgb(48,49,53)" d="M 0 0 L 2048 0 L 2048 1117 L 0 1117 L 0 0 z"/>
<path transform="translate(0,0)" fill="rgb(233,170,62)" d="M 1012.33 173.848 C 1151.38 171.917 1264.78 232.146 1343.92 345.379 L 1311.43 364.663 C 1307.01 357.945 1302.34 351.404 1297.4 345.056 C 1251.98 286.866 1189.22 244.636 1118.21 224.474 C 1096.06 218.314 1077.31 215.553 1054.72 212.644 L 1147.58 400.461 C 1171.77 449.428 1191.71 491.874 1219.28 538.912 L 1407.17 538.848 C 1408.19 555.68 1407.96 572.565 1406.47 589.362 C 1397.98 693.684 1348.06 783.917 1268.92 851.217 C 1257.89 834.925 1238.46 797.94 1228.24 779.714 C 1162.25 839.885 1075.87 869.487 987.099 858.092 C 934.476 851.338 891.4 832.182 848.109 802.499 C 854.18 791.52 860.387 780.618 866.73 769.794 C 911.001 802.962 964.553 821.424 1019.86 822.584 C 1091.45 824.219 1157.93 795.172 1209.35 746.215 L 1033.61 618.748 L 1024.16 611.953 L 902.401 700.442 C 883.383 714.172 855.911 732.63 839.049 748.135 C 836.274 750.686 821.627 777.19 818.719 782.316 L 779.403 851.451 C 724.434 805.779 683.092 745.861 659.903 678.26 C 625.218 575.174 636.875 474.913 684.545 378.525 C 694.465 383.835 707.024 391.78 716.931 397.65 C 707.846 415.458 700.185 433.956 694.018 452.971 C 666.207 539.042 673.914 632.654 715.427 713.018 C 724.606 698.64 733.866 684.314 743.207 670.041 C 742.043 667.044 740.912 664.035 739.816 661.013 C 712.035 585.416 715.785 501.829 750.223 429.023 C 788.362 347.591 851.159 298.611 934.092 268.704 C 926.037 285.526 917.852 302.285 909.537 318.979 C 792.417 379.847 733.557 500.903 769.056 629.863 C 794.877 588.438 822.773 547.267 848.041 505.572 C 856.672 491.33 868.156 466.442 875.763 451.025 L 917.762 365.815 C 948.698 303.041 982.942 236.93 1012.33 173.848 z"/>
<path transform="translate(0,0)" fill="rgb(48,49,53)" d="M 1023.65 236.737 C 1028.66 242.069 1049.95 288.101 1054.77 297.773 L 1161.43 513.338 C 1171.38 533.185 1185.85 556.827 1196.96 576.787 L 1370.15 576.852 C 1363.6 661.935 1336.05 724.036 1280.9 788.34 L 1253.64 740.718 C 1249.19 732.941 1242.64 720.643 1237.62 713.588 C 1235.97 714.068 1233.48 717.38 1232.05 718.948 C 1211.05 684.447 1189.3 644.463 1168.92 609.008 L 1046.75 397.425 L 1024.35 358.098 C 1001.51 394.715 819.51 715.67 817.245 717.265 C 816.753 717.611 816.131 717.718 815.575 717.944 C 814.138 716.345 812.99 715.177 811.429 713.7 C 808.145 715.436 771.996 780.393 767.531 788.221 C 755.933 774.791 747.191 763.359 736.945 749.051 L 831.234 601.812 C 855.184 564.381 880.292 527.837 899.367 487.626 C 910.899 463.315 923.308 439.008 935.236 414.853 L 1023.65 236.737 z"/>
<path transform="translate(0,0)" fill="rgb(233,170,62)" d="M 1282.67 619.508 C 1294.96 619.319 1308.26 619.674 1320.62 619.79 C 1310.57 657.626 1303.89 678.586 1282.92 713.415 C 1281.29 716.184 1278.82 719.566 1276.95 722.265 L 1256.09 685.213 C 1263.83 671.561 1270.24 657.194 1275.22 642.311 C 1277.57 635.367 1279.93 625.877 1282.67 619.508 z"/>
<path transform="translate(0,0)" fill="rgb(48,49,53)" d="M 1023.72 452.591 C 1026.29 454.265 1120.34 619.736 1128.91 634.749 C 1125.61 632.839 1121.74 630.031 1118.67 627.741 C 1087.95 604.882 1056.02 583.103 1025.68 559.788 L 1024.59 559.517 C 1021.05 560.717 997.628 578.268 992.351 582.098 L 919.393 635.032 C 930.465 614.238 944.114 591.599 955.971 570.91 L 1023.72 452.591 z"/>
<path transform="translate(0,0)" fill="rgb(233,170,62)" d="M 978.588 176.476 C 979.008 180.134 962.722 211.587 959.798 217.493 C 864.523 237.312 792.661 285.245 736.738 364.65 L 718.62 353.608 C 713.959 350.894 709.048 347.785 704.416 344.959 C 711.093 335.013 718.229 325.383 725.802 316.101 C 787.246 239.951 881.068 186.881 978.588 176.476 z"/>
<path transform="translate(0,0)" fill="rgb(233,170,62)" d="M 1114.33 269.319 C 1130.8 272.407 1167.83 290.772 1182.11 299.705 C 1256.29 346.095 1300.65 412.021 1320.74 496.201 L 1282.16 496.46 C 1260.92 414.141 1213.43 357.858 1138.62 318.835 C 1130.26 302.461 1122.16 285.954 1114.33 269.319 z"/>
<path transform="translate(0,0)" fill="rgb(233,170,62)" d="M 1222.38 839.833 C 1225.19 843.442 1238.52 867.068 1241.61 872.343 C 1183.21 911.332 1131.2 931.622 1061.24 939.856 L 1043.64 941.14 C 1043.67 928.508 1043.62 915.876 1043.47 903.246 C 1105.54 902.07 1171.96 875.154 1222.38 839.833 z"/>
<path transform="translate(0,0)" fill="rgb(233,170,62)" d="M 825.662 839.68 C 879.975 876.719 938.447 899.844 1004.68 903.268 L 1004.64 940.973 L 987.516 939.814 C 917.758 931.254 865.33 911.526 806.909 872.034 C 810.718 864.225 820.875 848.141 825.662 839.68 z"/>
<path transform="translate(0,0)" fill="rgb(233,170,62)" d="M 1362.95 378.852 C 1367.01 381.902 1378.05 409.947 1380.81 416.633 C 1391.38 442.272 1397.9 469.218 1403.11 496.374 L 1372.59 496.533 C 1369.59 496.628 1368.94 496.629 1366.02 495.972 C 1363.3 492.02 1359.29 469.519 1357.18 462.35 C 1350.23 438.726 1341.88 419.684 1331.46 397.6 C 1342.07 391.543 1352.57 385.292 1362.95 378.852 z"/>
</svg>
